PathFileType	4	(X/Y/Z)	pose_F01_0-95.trc
DataRate	CameraRate	NumFrames	NumMarkers	Units	OrigDataRate	OrigDataStartFrame	OrigNumFrames
30	30	11	21	m	30	35	95
Frame#	Time	CHip			RHip			RKnee			RAnkle			RBigToe			RSmallToe			RHeel			LHip			LKnee			LAnkle			LBigToe			LSmallToe			LHeel			Neck			Nose			RShoulder			RElbow			RWrist			LShoulder			LElbow			LWrist			
		X1	Y1	Z1	X2	Y2	Z2	X3	Y3	Z3	X4	Y4	Z4	X5	Y5	Z5	X6	Y6	Z6	X7	Y7	Z7	X8	Y8	Z8	X9	Y9	Z9	X10	Y10	Z10	X11	Y11	Z11	X12	Y12	Z12	X13	Y13	Z13	X14	Y14	Z14	X15	Y15	Z15	X16	Y16	Z16	X17	Y17	Z17	X18	Y18	Z18	X19	Y19	Z19	X20	Y20	Z20	X21	Y21	Z21	
35	1.1666666666666667	-0.25644627965477523	1.8914853638412823	-0.594400569212167	-0.2726903988976361	1.8906479110375423	-0.5216827899962884	-0.2841522980045108	1.7692237163766447	-0.5264980858976387													-0.24269567337962897	1.894840316343537	-0.6630049444393001	-0.24090822353066796	1.737854840074195	-0.6675725237880663	-0.253093107029543	1.6422463480597265	-0.7263220785422395	-0.24101748814388924	1.6003396575087554	-0.7219903137502093	-0.2354860569718144	1.6073355472560678	-0.7570578153261979	-0.26091162479911184	1.6382621986162484	-0.7107211543505683	-0.2659494225217918	2.0612708526830255	-0.6282590639764595	-0.24529059058669056	2.135288200954175	-0.634021320928357	-0.287320193089611	2.063400824918912	-0.5321748247044985	-0.29250576294659625	1.9854591621657736	-0.47068207067586765	-0.27909988805066227	1.9203753806608057	-0.41228462649494546	-0.2400291531052286	2.06311694028851	-0.7294312828170305	-0.23308097165352876	1.981529043959276	-0.7571715677201875	-0.2090545192501206	1.9087668122244046	-0.7391965415977478
36	1.2	-0.255704855747795	1.9014230282814464	-0.5957008259501277	-0.2709813523868261	1.9011764954646801	-0.5283332945741097	-0.2841522980045108	1.7692237163766447	-0.5264980858976387													-0.24497785625205726	1.901935870521686	-0.6647224321555023	-0.24080895712487585	1.7420263466988497	-0.6779345127567196	-0.253093107029543	1.6422463480597265	-0.7263220785422395	-0.24101748814388924	1.6003396575087554	-0.7219903137502093	-0.2354860569718144	1.6073355472560678	-0.7570578153261979	-0.26091162479911184	1.6382621986162484	-0.7107211543505683	-0.2662004934296761	2.070049528338213	-0.6488060456233522	-0.24551961379908566	2.1396117440736138	-0.653478496343727	-0.2881809057747148	2.0691835296391794	-0.5528429165163868	-0.29105352361468917	1.9930165026045181	-0.4682646324879167	-0.2679126135886036	1.9372000241269483	-0.3912257866964686	-0.2442164522084142	2.068891537003989	-0.7450790941683813	-0.22897794504804816	1.993872451130676	-0.7659133338334091	-0.19362529249920865	1.9287724836541242	-0.7493823641456367
37	1.2333333333333334	-0.2586332792229834	1.8995516615576367	-0.6048397534701118	-0.27403987237138255	1.8977397241387655	-0.537610427369808	-0.2841522980045108	1.7692237163766447	-0.5264980858976387													-0.24694586149405168	1.8996969177904661	-0.6707082362080937	-0.2407096907190837	1.7461978533235043	-0.6882965017253728	-0.253093107029543	1.6422463480597265	-0.7263220785422395	-0.24101748814388924	1.6003396575087554	-0.7219903137502093	-0.2354860569718144	1.6073355472560678	-0.7570578153261979	-0.26091162479911184	1.6382621986162484	-0.7107211543505683	-0.2642403818146205	2.0708258032742033	-0.6698685484592741	-0.2449517135528792	2.1414195166672636	-0.6694879369136613	-0.2825910001878416	2.073810484653054	-0.5786092321959637	-0.2855673957992838	2.005247345544214	-0.4711740375445174	-0.2569165788419417	1.9801434316725057	-0.40151807708018195	-0.24613756062776743	2.067069422875484	-0.7614319031146921	-0.2225115964477735	1.9979590304197055	-0.7862250216839666	-0.18120895082615493	1.9728427441154164	-0.7862043324892735
38	1.2666666666666666	-0.26221957873539137	1.9001167325657697	-0.6174480810499011	-0.275881993607603	1.899993710634454	-0.5442428614337405	-0.2841522980045108	1.7692237163766447	-0.5264980858976387													-0.25040603502345954	1.9014275358558286	-0.6832423197960263	-0.2406104243132916	1.7503693599481587	-0.698658490694026	-0.253093107029543	1.6422463480597265	-0.7263220785422395	-0.24101748814388924	1.6003396575087554	-0.7219903137502093	-0.2354860569718144	1.6073355472560678	-0.7570578153261979	-0.26091162479911184	1.6382621986162484	-0.7107211543505683	-0.26362165823315414	2.0705774169936686	-0.686547294146148	-0.24522519568082607	2.139936770848232	-0.6891691641495237	-0.2804409127678884	2.073131002211771	-0.597370642964885	-0.282718109451555	2.008213476245695	-0.4797229382844954	-0.2564950202866818	2.011309977997371	-0.4214178414981014	-0.24237312343046033	2.064609684433556	-0.7773903178466874	-0.21728981322044885	1.9982227430983233	-0.7992313328634603	-0.17486514991138916	2.0014650679201265	-0.8020648932011178
39	1.3	-0.26221922098701506	1.897694321421741	-0.6260430697902073	-0.27592137834011227	1.8994360221499642	-0.5613786030496996	-0.2841522980045108	1.7692237163766447	-0.5264980858976387													-0.24465491999252603	1.898915190117246	-0.7013676978673704	-0.24051115790749947	1.7545408665728133	-0.7090204796626792	-0.253093107029543	1.6422463480597265	-0.7263220785422395	-0.24101748814388924	1.6003396575087554	-0.7219903137502093	-0.2354860569718144	1.6073355472560678	-0.7570578153261979	-0.26091162479911184	1.6382621986162484	-0.7107211543505683	-0.25772905229050613	2.0729509153964143	-0.7054285501359617	-0.2435258260950943	2.14311424132631	-0.7035204806767034	-0.27283987899339923	2.077835901668527	-0.6182500864697382	-0.2806444642315096	2.0162155040659226	-0.49163349240889465	-0.2560734617314219	2.042476524322236	-0.44131760591602087	-0.23807421618721358	2.0660399557497335	-0.7935280606800519	-0.21173367414092678	2.0008041849167366	-0.8106247788089972	-0.1709110664350559	2.0222869645954638	-0.7926495891475732
40	1.3333333333333333	-0.2618711012011397	1.9038810174149126	-0.6438770785672696	-0.2749016736335908	1.9045643962181664	-0.5763074082459254	-0.2841522980045108	1.7692237163766447	-0.5264980858976387													-0.24445257446578064	1.9041388588985972	-0.7106308300110135	-0.24041189150170736	1.7587123731974679	-0.7193824686313325	-0.253093107029543	1.6422463480597265	-0.7263220785422395	-0.24101748814388924	1.6003396575087554	-0.7219903137502093	-0.2354860569718144	1.6073355472560678	-0.7570578153261979	-0.26091162479911184	1.6382621986162484	-0.7107211543505683	-0.2542769716261873	2.0745694942613913	-0.7132748048799722	-0.2404858557555789	2.1474356661009053	-0.7227177070091502	-0.2716887954093071	2.0780331547636037	-0.6235504557953215	-0.28439674032088974	2.0226420411326878	-0.4965092533035735	-0.2520948376371052	2.060618310811244	-0.46607435183317325	-0.23294518676879464	2.070953166953484	-0.8071017609475128	-0.20500533064733342	2.0059324358757524	-0.8181886653965117	-0.16633784505156632	2.041425099673435	-0.801882513363073
41	1.3666666666666667	-0.25942091678690404	1.9106570873027842	-0.6558188329462293	-0.27261647126063526	1.9118611918366384	-0.5881330610566736	-0.2841522980045108	1.7692237163766447	-0.5264980858976387													-1.241183343203974	1.8223922643570927	0.27892818938850444	-0.23918649525589109	1.775728894270247	-0.7303790845994437	-0.253093107029543	1.6422463480597265	-0.7263220785422395	-0.24101748814388924	1.6003396575087554	-0.7219903137502093	-0.2354860569718144	1.6073355472560678	-0.7570578153261979	-0.26091162479911184	1.6382621986162484	-0.7107211543505683	-0.2515451214364733	2.0774149710870216	-0.723264696824388	-0.23562804100474308	2.151207186529203	-0.7351174528446571	-0.26931460728487594	2.0796772873774247	-0.6345419140262365	-0.2797200404550841	2.035124363439149	-0.501898876577421	-0.24844667034682538	2.0810424061297343	-0.4843734689228324	-0.2319842836304863	2.0759772522078763	-0.8152713809209252	-0.20011289151011236	2.0159836707062255	-0.8239428620773459	-0.16642752753775936	2.0558323337601934	-0.8056204668616554
42	1.4	-0.2576554144338117	1.9096731974422128	-0.660718635232694	-0.271992330332867	1.912354500325544	-0.5963888962890951	-0.28313621009031864	1.759714366216352	-0.5224351762663552													-1.2297590288593419	1.8163401262124554	0.25487016356577447	-0.23897153465697604	1.7638355370020706	-0.729368040960904	-0.253093107029543	1.6422463480597265	-0.7263220785422395	-0.24101748814388924	1.6003396575087554	-0.7219903137502093	-0.2354860569718144	1.6073355472560678	-0.7570578153261979	-0.26091162479911184	1.6382621986162484	-0.7107211543505683	-0.252382701414072	2.0778137612983185	-0.7262828350650237	-0.23342742831225916	2.1523619990089253	-0.7371438499365167	-0.26801468884057594	2.0798639502844454	-0.6390297470625522	-0.27765507807272743	2.036489101399687	-0.5040588442147029	-0.24720353456612434	2.0876318651935644	-0.4980993492015049	-0.23283655703195047	2.0762741269417506	-0.8181973831419046	-0.19899822607680276	2.021680714513729	-0.8215778094778381	-0.16145131716275993	2.0666545697756598	-0.8001769326297328
43	1.4333333333333333	-0.25934489394190424	1.9076457464595347	-0.6665613205524126	-0.27571925461758867	1.907834595628319	-0.6000248275316452	-0.285711926805829	1.7580280466419516	-0.5165427490747155													-0.24670887773254832	1.9070978207476408	-0.7315574520996717	-0.23897153465697604	1.7638355370020706	-0.729368040960904	-0.253093107029543	1.6422463480597265	-0.7263220785422395	-0.24101748814388924	1.6003396575087554	-0.7219903137502093	-0.2354860569718144	1.6073355472560678	-0.7570578153261979	-0.26091162479911184	1.6382621986162484	-0.7107211543505683	-0.25349861757834924	2.0768575061675705	-0.7200176102989465	-0.23326853812277418	2.149301670380218	-0.7353528705485199	-0.26911364577170177	2.0781064508386535	-0.6327641392007128	-0.276639370328308	2.03489987954312	-0.5003759336986054	-0.2498274427161993	2.0925305979299043	-0.49914875037675566	-0.23626236088683192	2.075865483128377	-0.8097814557835679	-0.19866981451933813	2.0234933655694762	-0.8215911020983013	-0.1663883276957515	2.0710053447266037	-0.7980897591751173
44	1.4666666666666666	-0.2621659230033489	1.8949213785289056	-0.6635498749887301	-0.27831184953227106	1.893440998560562	-0.5978691860161112	-0.28828764352133945	1.7563417270675514	-0.510650321883076													-0.2487828887492839	1.895388800245481	-0.7279667993194661	-0.23897153465697604	1.7638355370020706	-0.729368040960904	-0.253093107029543	1.6422463480597265	-0.7263220785422395	-0.24101748814388924	1.6003396575087554	-0.7219903137502093	-0.2354860569718144	1.6073355472560678	-0.7570578153261979	-0.26091162479911184	1.6382621986162484	-0.7107211543505683	-0.2539738642857426	2.0649980390411846	-0.709085158053281	-0.23147703396694916	2.130129416613756	-0.7043083067476147	-0.2723383379436338	2.065974632622591	-0.6225606093539039	-0.2782185870274555	2.029906959957086	-0.4956825170557894	-0.25093683575634496	2.0881564498198535	-0.4921618975227477	-0.23590814678132593	2.06745239134468	-0.796487555845431	-0.20022733557789263	2.0244093810153756	-0.8164864625095132	-0.17064835131848893	2.0725276403835657	-0.7920084748317229
45	1.5	-0.26498695206479356	1.8821970105982766	-0.6605384294250477	-0.28090444444695345	1.8790474014928054	-0.5957135445005772	-0.2908633602368499	1.754655407493151	-0.5047578946914364													-0.25085689976601944	1.8836797797433213	-0.7243761465392603	-0.23897153465697604	1.7638355370020706	-0.729368040960904	-0.253093107029543	1.6422463480597265	-0.7263220785422395	-0.24101748814388924	1.6003396575087554	-0.7219903137502093	-0.2354860569718144	1.6073355472560678	-0.7570578153261979	-0.26091162479911184	1.6382621986162484	-0.7107211543505683	-0.25785299421198865	2.0415342149633493	-0.6890063328338991	-0.2431241552844763	2.1035591882350166	-0.6821150948006358	-0.2758646033799708	2.0374081013291034	-0.6055089335184716	-0.2784973363023072	2.0129703642628933	-0.5009640922342827	-0.2538926429278086	2.0722224686046102	-0.488681553044069	-0.24068030936770315	2.046827721594459	-0.7783616010699274	-0.20304663036574358	2.01576458112976	-0.8035050520534174	-0.17713524152540158	2.071052772782173	-0.7730092131984382
